<?xml version="1.0" encoding="UTF-8" standalone="no"?>
<!DOCTYPE svg PUBLIC "-//W3C//DTD SVG 1.1//EN" "http://www.w3.org/Graphics/SVG/1.1/DTD/svg11.dtd">
<svg width="100%" height="100%" viewBox="0 0 512 512" version="1.1" xmlns="http://www.w3.org/2000/svg" xmlns:xlink="http://www.w3.org/1999/xlink" xml:space="preserve" xmlns:serif="http://www.serif.com/" style="fill-rule:evenodd;clip-rule:evenodd;stroke-linejoin:round;stroke-miterlimit:2;">
    <path d="M253.4,0.3C222.6,-2.7 195.2,19.9 192.3,50.6L177.9,199L123.8,66.8C112.1,38.2 79.4,24.5 50.8,36.2C22.2,47.9 8.5,80.6 20.2,109.2L84.5,266.5C71.8,280.7 64,299.4 64,320L64,352C64,440.4 135.6,512 224,512L288,512C376.4,512 448,440.4 448,352L448,240C448,236.8 447.1,233.9 445.5,231.4C438.4,208.6 417.2,192 392,192C379.9,192 368.7,195.8 359.5,202.4C349.6,186.5 332,176 312,176C305.1,176 298.4,177.3 292.3,179.6L303.7,61.4C306.7,30.6 284.1,3.2 253.4,0.3ZM111.1,247L49.8,97.1C44.8,84.8 50.7,70.8 62.9,65.8C75.1,60.8 89.2,66.7 94.2,78.9L160.1,240L144,240C132.3,240 121.2,242.5 111.1,247ZM232,240L206.1,240L224.1,53.7C225.4,40.5 237.1,30.8 250.3,32.1C263.5,33.4 273.2,45.1 271.9,58.3L253.9,244.4C247.2,241.5 239.8,240 232,240ZM312,208C325.3,208 336,218.7 336,232L336,296C336,309.3 325.3,320 312,320C298.7,320 288,309.3 288,296L288,232C288,218.7 298.7,208 312,208ZM344.5,341.6C354.4,357.5 372,368 392,368C400.4,368 408.4,366.1 415.5,362.8C410.1,428.5 355,480 288,480L224,480C153.3,480 96,422.7 96,352L96,320C96,293.5 117.5,272 144,272L232,272C245.2,272 256,282.7 256,296C256,309.3 245.3,320 232,320L176,320C167.2,320 160,327.2 160,336C160,344.8 167.2,352 176,352L232,352C247.7,352 261.8,345.6 272,335.2C282.2,345.6 296.3,352 312,352C324.1,352 335.3,348.2 344.5,341.6ZM416,312C416,325.2 405.2,336 392,336C378.7,336 368,325.3 368,312L368,248C368,234.7 378.7,224 392,224C405.2,224 416,234.7 416,248L416,312Z" style="fill:rgb(24,162,217);fill-rule:nonzero;"/>
</svg>
