<?xml version="1.0" encoding="UTF-8" standalone="no"?>
<!DOCTYPE svg PUBLIC "-//W3C//DTD SVG 1.1//EN" "http://www.w3.org/Graphics/SVG/1.1/DTD/svg11.dtd">
<svg width="100%" height="100%" viewBox="0 0 512 512" version="1.1" xmlns="http://www.w3.org/2000/svg" xmlns:xlink="http://www.w3.org/1999/xlink" xml:space="preserve" xmlns:serif="http://www.serif.com/" style="fill-rule:evenodd;clip-rule:evenodd;stroke-linejoin:round;stroke-miterlimit:2;">
    <path d="M244,130.6L232,117.1L227.8,112.4C201.8,83.2 162.5,69.6 124,76.6C70.7,86.3 32,132.7 32,186.9L32,190.4C32,222.7 45.4,253.5 69.1,275.5L253,446.8C253.8,447.5 254.9,448 256,448C257.1,448 258.2,447.6 259,446.8L443,275.5C466.6,253.5 480,222.7 480,190.4L480,186.9C480,132.7 441.3,86.3 388,76.6C349.5,69.6 310.2,83.2 284.2,112.4L280,117.1L268,130.6C265,134 260.6,136 256,136C251.4,136 247.1,134 244,130.6ZM278.9,73.5C311,48.4 352.7,37.7 393.7,45.1C462.2,57.6 512,117.3 512,186.9L512,190.4C512,226.4 498.9,261 475.4,287.9C472,291.7 468.5,295.4 464.7,298.9L280.7,470.2C279.9,471 279,471.7 278.1,472.4C271.8,477.3 264,479.9 256,479.9C246.8,479.9 238,476.4 231.2,470.2L47.2,299C43.4,295.5 39.9,291.8 36.5,288C13.1,261 0,226.4 0,190.4L0,186.9C0,117.3 49.8,57.6 118.3,45.1C159.2,37.7 200.9,48.3 233,73.5C239.7,78.8 246,84.6 251.7,91.1L255.9,95.8L260.1,91.1C264.3,86.4 268.7,82 273.4,78C275.2,76.5 277,75 278.8,73.5L278.9,73.5Z" style="fill:rgb(24,162,217);fill-rule:nonzero;"/>
</svg>
