<?xml version="1.0" encoding="UTF-8" standalone="no"?>
<!DOCTYPE svg PUBLIC "-//W3C//DTD SVG 1.1//EN" "http://www.w3.org/Graphics/SVG/1.1/DTD/svg11.dtd">
<svg width="100%" height="100%" viewBox="0 0 448 512" version="1.1" xmlns="http://www.w3.org/2000/svg" xmlns:xlink="http://www.w3.org/1999/xlink" xml:space="preserve" xmlns:serif="http://www.serif.com/" style="fill-rule:evenodd;clip-rule:evenodd;stroke-linejoin:round;stroke-miterlimit:2;">
    <path d="M296.9,0L151.1,0L146.4,7.5L111.1,64L0,64L0,96L34.3,96L64,512L384,512L413.7,96L448,96L448,64L336.9,64L301.6,7.5L296.9,0ZM299.1,64L148.9,64L168.9,32L279.1,32L299.1,64ZM93.8,480L66.4,96L381.6,96L354.2,480L93.8,480ZM159.4,200.8L136.8,223.4L201.4,288L136.8,352.6L159.4,375.2L224,310.6L288.6,375.2L311.2,352.6L246.6,288L311.2,223.4L288.6,200.8L224,265.4L159.4,200.8Z" style="fill:rgb(24,162,217);fill-rule:nonzero;"/>
</svg>
